<svg width="24" height="24" viewBox="0 0 24 24" fill="none" xmlns="http://www.w3.org/2000/svg">
    <path d="M11.9998 8.00024C12.5521 8.00024 12.9998 8.44796 12.9998 9.00024V13.0002C12.9998 13.5525 12.5521 14.0002 11.9998 14.0002C11.4475 14.0002 10.9998 13.5525 10.9998 13.0002V9.00024C10.9998 8.44796 11.4475 8.00024 11.9998 8.00024ZM11.9998 16.0002C11.4475 16.0002 10.9998 16.4479 10.9998 17.0002C10.9998 17.5525 11.4475 18.0002 11.9998 18.0002H12.0098C12.5621 18.0002 13.0098 17.5525 13.0098 17.0002C13.0098 16.4479 12.5621 16.0002 12.0098 16.0002H11.9998ZM10.528 2.2833C10.9773 2.03034 11.4842 1.89746 11.9998 1.89746C12.5154 1.89746 13.0223 2.03034 13.4716 2.2833C13.9209 2.53625 14.2974 2.90073 14.5648 3.34157L14.5677 3.34632L23.0377 17.4863L23.0458 17.5001C23.3078 17.9537 23.4464 18.468 23.4478 18.9919C23.4493 19.5157 23.3136 20.0308 23.0542 20.4859C22.7948 20.941 22.4207 21.3202 21.9692 21.5859C21.5178 21.8515 21.0046 21.9943 20.4808 22.0001L20.4698 22.0002H3.51879C2.99498 21.9944 2.48182 21.8515 2.03035 21.5859C1.57888 21.3202 1.20483 20.941 0.945426 20.4859C0.686023 20.0308 0.550303 19.5157 0.55177 18.9919C0.553236 18.468 0.691839 17.9537 0.953786 17.5001L0.961909 17.4863L9.43191 3.34633L9.43478 3.34157C9.70219 2.90073 10.0787 2.53625 10.528 2.2833ZM11.146 4.37684L2.68247 18.506C2.59729 18.6558 2.55225 18.8251 2.55177 18.9975C2.55128 19.1721 2.59652 19.3438 2.68298 19.4955C2.76945 19.6472 2.89414 19.7736 3.04463 19.8621C3.1938 19.9499 3.36318 19.9975 3.53618 20.0002H20.4634C20.6364 19.9975 20.8058 19.9499 20.955 19.8621C21.1055 19.7736 21.2301 19.6472 21.3166 19.4955C21.4031 19.3438 21.4483 19.1721 21.4478 18.9975C21.4474 18.8251 21.4023 18.6558 21.3172 18.506L12.8548 4.37883L12.8536 4.37684C12.7646 4.23078 12.6395 4.11001 12.4904 4.02607C12.3407 3.94175 12.1717 3.89746 11.9998 3.89746C11.828 3.89746 11.659 3.94175 11.5092 4.02607C11.3601 4.11001 11.2351 4.23078 11.146 4.37684Z" fill="#131415"/>
</svg>
